PathFileType	4	(X/Y/Z)	C:/Users/opensim2020/Desktop/walking_exp_matlab/subject03_walking14_straight_04.trc	
DataRate	CameraRate	NumFrames	NumMarkers	Units	OrigDataRate	OrigDataStartFrame	OrigNumFrames	
100.00	100.00	9	47	mm	100.00	2200	177	
Frame#	Time	LFHD			RFHD			LBHD			RBHD			C7			T10			CLAV			STRN			RBAK			LSHO			LUPA			LELB			LFRM			LWRA			LWRB			LFIN			RSHO			RUPA			RELB			RFRM			RWRA			RWRB			RFIN			LASI			RASI			LPSI			RPSI			LTHI			LKNE			LTIB			LANK			LHEE			LTOE			RTHI			RKNE			RTIB			RANK			RHEE			RTOE			*39			*40			*41			*42			*43			*44			*45			*46			
		X1	Y1	Z1	X2	Y2	Z2	X3	Y3	Z3	X4	Y4	Z4	X5	Y5	Z5	X6	Y6	Z6	X7	Y7	Z7	X8	Y8	Z8	X9	Y9	Z9	X10	Y10	Z10	X11	Y11	Z11	X12	Y12	Z12	X13	Y13	Z13	X14	Y14	Z14	X15	Y15	Z15	X16	Y16	Z16	X17	Y17	Z17	X18	Y18	Z18	X19	Y19	Z19	X20	Y20	Z20	X21	Y21	Z21	X22	Y22	Z22	X23	Y23	Z23	X24	Y24	Z24	X25	Y25	Z25	X26	Y26	Z26	X27	Y27	Z27	X28	Y28	Z28	X29	Y29	Z29	X30	Y30	Z30	X31	Y31	Z31	X32	Y32	Z32	X33	Y33	Z33	X34	Y34	Z34	X35	Y35	Z35	X36	Y36	Z36	X37	Y37	Z37	X38	Y38	Z38	X39	Y39	Z39	X40	Y40	Z40	X41	Y41	Z41	X42	Y42	Z42	X43	Y43	Z43	X44	Y44	Z44	X45	Y45	Z45	X46	Y46	Z46	X47	Y47	Z47	

23	0.220	-916.42993	751.65118	1619.00256	-1048.99658	755.78278	1626.16052	-918.48669	877.13733	1567.65552	-1049.24634	875.72260	1574.30420	-982.30695	901.63757	1411.03394	-985.01666	928.24982	1098.02234	-979.42896	778.60699	1336.80762	-969.67279	731.00287	1172.88757	-1078.46863	946.96796	1233.21021	-826.20587	832.67224	1376.51843	-756.39612	822.93451	1182.12585	-751.45569	790.96490	1062.35352	-769.48755	720.32593	955.99994	-818.59998	658.64038	863.31824	-766.63568	675.56177	851.16602	-789.21545	622.86505	790.09387	-1139.89722	820.91644	1358.96008	-1217.13757	813.64728	1138.18982	-1233.19556	795.08246	1027.32361	-1239.41077	775.99481	891.83514	-1207.30029	745.34875	795.74902	-1252.21375	775.33972	791.61548	-1242.85803	752.87897	719.95862	-860.85004	771.25269	931.45593	-1097.57080	751.24030	943.62921	-922.56024	928.95502	951.07068	-1069.81885	915.93646	970.45654	-819.00330	778.38586	626.26587	-838.98114	732.97058	452.78458	-851.55957	880.57892	324.71008	-901.43640	1029.66089	184.78233	-942.59741	1080.44653	190.03880	-923.06488	954.94208	55.44532	-1144.59937	780.79437	647.89392	-1101.74988	753.01361	472.01331	-1112.71826	801.27051	282.85217	-1070.69092	846.03149	70.81959	-1025.12317	896.33313	39.82062	-1046.59485	707.57135	32.42900				-963.03784	838.47986	1676.77844																		 
24	0.230	-916.91229	738.56653	1619.87280	-1049.52344	742.55432	1626.75940	-918.99408	864.32001	1569.22742	-1049.79541	862.77649	1575.58899	-982.96820	889.57104	1412.15881	-986.00629	915.79266	1099.07104	-979.41351	766.56158	1337.98572	-969.78088	718.90820	1174.14941	-1079.80359	934.34882	1234.72058	-826.50677	821.70209	1377.59326	-756.95831	813.29785	1182.84412	-751.52777	782.36536	1062.72131	-767.23651	714.30969	953.99231	-814.13885	654.85437	858.49585	-762.26538	673.11700	847.72327	-783.03473	622.46216	784.24274	-1140.04053	807.93250	1360.51282	-1217.65759	797.31641	1140.08008	-1233.64807	776.50800	1029.71985	-1239.73889	754.47498	894.69446	-1207.19324	722.22180	799.28162	-1252.48572	751.46442	794.59772	-1243.36243	726.79529	723.75323	-862.02594	758.98608	933.70111	-1098.12720	739.08826	944.58209	-922.91840	916.20648	952.80896	-1070.39294	903.07257	971.31799	-819.25177	760.26245	629.30811	-839.54523	710.36224	456.98807	-851.90698	852.08832	322.42285	-901.80115	995.65607	176.47079	-942.78467	1047.15479	178.67870	-923.90479	913.10657	52.51683	-1144.37781	772.70935	647.89423	-1101.93628	748.98596	471.39380	-1112.78394	799.17554	282.87402	-1070.41650	845.64520	71.06147	-1025.13721	895.78510	40.02058	-1046.55933	707.48590	32.36469				-963.73169	825.02716	1678.06555																		 
25	0.240	-917.37885	725.57367	1620.55249	-1050.02979	729.31677	1627.10889	-919.53754	851.54279	1570.66968	-1050.35437	849.92621	1576.69885	-983.52301	877.39044	1413.07898	-986.95203	903.42468	1099.98901	-979.29993	754.58691	1339.11621	-969.97571	706.81317	1175.20349	-1081.10107	921.66315	1236.06409	-826.72833	810.57898	1378.42004	-757.31384	803.44977	1183.32104	-751.24115	773.94952	1062.93982	-764.82874	708.56024	951.94220	-809.40009	651.20392	853.73077	-757.81708	671.00641	844.29285	-776.72675	622.51038	778.51630	-1140.14514	795.01990	1361.83105	-1218.26880	781.19348	1141.92358	-1234.08008	758.06073	1032.00183	-1239.92749	733.00403	897.55908	-1207.06958	699.11322	802.82959	-1252.66663	727.62860	797.65344	-1243.66833	700.89758	727.59229	-863.04602	745.68018	935.89301	-1098.98633	726.97205	945.01166	-923.25018	903.49603	954.36401	-1070.97388	890.47260	972.08801	-819.36450	742.42804	632.18536	-840.33289	688.27954	461.15320	-852.24280	823.69904	319.84412	-902.15900	960.58441	167.34746	-943.15350	1012.54871	166.32402	-924.13843	870.29956	49.83937	-1144.01526	764.56958	647.87347	-1102.28809	745.25366	470.87372	-1112.99780	797.32697	283.00760	-1070.12158	845.51398	71.29443	-1024.92065	895.96375	40.81391	-1046.55579	707.37067	32.26474				-964.24725	811.52612	1679.53162																		 
26	0.250	-917.85156	712.51801	1620.98462	-1050.48010	716.08057	1627.33691	-920.06830	838.80298	1571.89026	-1050.94421	836.99048	1577.62573	-983.96185	865.22687	1413.95618	-987.83716	891.10907	1100.74463	-979.34534	742.57330	1339.80481	-970.29327	694.74768	1176.09070	-1082.38953	909.05994	1237.20569	-826.95758	799.26855	1378.94482	-757.54572	793.54266	1183.54504	-750.80994	765.74115	1062.82349	-762.48077	702.95789	949.65497	-804.74396	648.17236	848.82941	-753.32843	669.56525	840.99103	-770.32257	623.00604	772.99274	-1140.18677	782.19452	1363.05029	-1218.82690	765.17957	1143.58521	-1234.60791	739.80798	1034.23645	-1240.13733	711.63037	900.34973	-1206.92322	675.94562	806.49353	-1252.69580	703.86951	800.72998	-1243.90576	675.22101	731.70599	-863.99591	732.58093	937.57483	-1099.82703	714.91321	945.22943	-923.47449	890.85400	955.62170	-1071.44873	877.97510	972.69293	-819.38818	724.96063	634.96497	-841.16956	666.80652	465.16330	-852.82343	795.45770	317.05441	-902.53912	924.69928	157.51143	-943.53082	976.85559	153.24138	-925.18250	826.18811	46.97603	-1144.46558	757.36945	648.09937	-1102.82007	741.87091	470.37839	-1113.32397	795.88251	283.22641	-1070.10974	845.34729	71.73075	-1024.78528	895.84802	41.77130	-1046.56726	707.25470	32.19994				-965.37555	798.12036	1680.49780																		 
27	0.260	-918.30377	699.56628	1621.24792	-1050.91602	702.80511	1627.30566	-920.62964	826.01733	1572.88391	-1051.46533	823.96912	1578.31226	-984.27124	852.88190	1414.60107	-988.71979	879.02155	1101.36963	-979.37421	730.52594	1340.29871	-970.73602	682.63995	1176.62915	-1083.67493	896.61279	1238.13672	-827.07599	787.73022	1379.11328	-757.65222	783.65143	1183.42297	-750.26862	757.50665	1062.36719	-759.93323	697.63092	947.28912	-799.98236	645.35529	844.08282	-748.89972	667.93048	837.64600	-763.91217	623.83459	767.62909	-1140.18298	769.49506	1364.03796	-1219.40100	749.30035	1145.12439	-1235.12866	721.74884	1036.34802	-1240.26099	690.42151	903.15930	-1206.57947	652.89294	810.12378	-1252.57983	680.17755	803.79297	-1243.87012	649.62518	735.72479	-864.86743	719.80200	938.91730	-1100.66565	702.81781	945.06940	-923.59607	878.14362	956.51825	-1071.83630	865.58453	973.03534	-819.35321	707.83508	637.53870	-842.02759	645.95178	468.98874	-853.55798	767.48022	314.19547	-903.15198	887.79181	147.53783	-943.90845	940.07587	139.69505	-925.74634	782.43231	43.78661	-1144.46326	748.96582	647.63647	-1103.53308	738.87640	469.89310	-1113.80664	794.80945	283.55884	-1070.04102	845.25488	72.25562	-1024.57068	895.61694	42.53487	-1046.58643	707.10333	32.17387				-965.82581	784.71057	1681.26038																		 
28	0.270	-918.76294	686.63599	1621.28101	-1051.38696	689.56158	1627.02283	-921.23248	813.31757	1573.61938	-1052.07556	810.97888	1578.69226	-984.45465	840.52374	1414.99854	-989.31793	866.45923	1101.59155	-979.31085	718.45984	1340.56543	-971.22137	670.50293	1176.92834	-1084.75574	884.07111	1238.77136	-827.12878	775.98560	1378.97107	-757.63678	773.69812	1183.05188	-749.61230	749.35529	1061.65015	-757.35089	692.38568	944.71613	-795.16302	642.86163	839.10229	-744.50830	666.61401	834.29401	-757.58905	624.93890	762.40399	-1140.08337	756.71649	1364.52393	-1219.88110	733.50165	1146.47095	-1235.62598	703.85553	1038.27869	-1240.31250	669.31793	905.81317	-1206.23474	629.65234	813.99640	-1252.37903	656.66339	806.89154	-1243.64392	624.27283	739.77209	-865.71863	707.56470	939.55023	-1101.40869	690.80286	944.73553	-923.62091	865.46564	957.08099	-1072.03784	853.32495	973.23712	-819.21039	690.95349	639.84644	-842.95789	626.19012	472.46506	-854.20380	739.71417	311.03799	-903.64569	849.93732	137.12802	-944.47107	901.69781	125.99135	-925.90143	737.80206	41.13607	-1144.38367	741.30035	647.55408	-1104.42395	736.15826	469.54254	-1114.29065	793.93457	284.03091	-1070.17102	845.32275	73.01505	-1024.51965	895.05988	42.99072	-1046.66565	707.01013	32.14896				-966.38995	771.12549	1681.62744																		 
29	0.280	-919.15863	673.71130	1621.18176	-1051.83057	676.30103	1626.53418	-921.82452	800.54529	1574.12341	-1052.69971	797.98114	1578.80579	-984.46399	828.11395	1415.15955	-989.99219	854.10461	1101.66992	-979.31342	706.31384	1340.52698	-971.77472	658.30164	1176.91260	-1085.60510	871.59888	1239.14905	-827.05872	764.07190	1378.54053	-757.56140	763.60809	1182.31482	-748.91766	741.01611	1060.67932	-754.34528	687.46240	942.34741	-790.66852	640.75592	834.08960	-740.14862	665.38733	830.93622	-751.40454	626.23907	757.34308	-1140.00122	744.23175	1365.20068	-1220.28320	717.78210	1147.65845	-1236.09900	686.08771	1040.10608	-1240.34351	648.34869	908.50391	-1205.86914	606.81012	817.70941	-1252.04797	633.29303	809.91150	-1243.19702	599.16248	743.77106	-865.49823	692.02484	941.29657	-1102.10791	678.90192	944.16223	-923.58521	852.81482	957.30225	-1072.13538	841.14581	973.20831	-818.96655	674.39435	641.88007	-843.68842	607.00476	475.60107	-854.70770	712.22461	307.52628	-904.04114	811.18634	126.80132	-945.13556	862.07141	112.14348	-925.68201	692.81573	38.85040	-1144.50952	734.13922	647.47028	-1105.29248	733.51440	469.26468	-1114.78333	793.04779	284.59964	-1070.13232	845.13806	73.65707	-1024.34387	894.77771	44.00617	-1046.74719	706.94910	32.08943				-967.11951	757.69946	1681.84875																		 
30	0.290	-919.61932	660.75391	1620.84583	-1052.27441	663.05347	1625.79333	-922.43036	787.78668	1574.32190	-1053.30261	784.94678	1578.61499	-984.38879	815.65527	1415.09192	-990.57300	841.96747	1101.51306	-979.30273	694.14270	1340.26306	-972.31812	646.08862	1176.65918	-1086.29004	859.34070	1239.31677	-826.95428	752.02234	1377.80176	-757.47467	753.54492	1181.23877	-748.13086	732.54749	1059.44458	-751.64624	682.49811	939.47583	-785.89044	638.52936	829.28003	-735.93823	664.31830	827.55298	-745.37866	627.73395	752.48395	-1139.88867	731.74481	1365.43848	-1220.58972	702.15643	1148.67676	-1236.50415	668.44635	1041.74280	-1240.30798	627.57672	911.10822	-1205.34326	583.86987	821.51239	-1251.63452	610.04218	812.92896	-1242.59399	574.24396	747.76831	-866.52893	680.06268	941.14081	-1102.55969	666.72778	943.67139	-923.43549	840.08643	957.19122	-1072.10034	829.09515	972.93732	-818.67963	658.18011	643.51801	-844.41870	588.77002	478.26959	-855.09882	684.75421	303.78598	-904.54736	771.73077	116.52474	-945.60175	821.22583	98.45506	-925.33997	647.45465	37.06531	-1144.51440	727.26746	647.33228	-1106.14355	730.74005	468.99438	-1115.16113	791.98102	285.25284	-1070.01013	844.99353	74.48457	-1024.05042	894.54932	45.13573	-1046.89954	706.85291	32.14901				-968.26575	744.50708	1681.41064																		 
31	0.300	-920.11420	647.80951	1620.26794	-1052.82813	649.86902	1624.76855	-922.99146	774.95325	1574.29919	-1053.88562	771.93933	1578.09229	-984.23004	803.19543	1414.81543	-990.92743	829.54138	1101.04907	-979.29010	681.93402	1339.67517	-972.88000	633.84174	1176.04089	-1086.78601	846.94409	1239.17847	-826.78729	739.83655	1376.76746	-757.34906	743.25928	1179.83643	-747.19397	723.90332	1057.99365	-749.07202	677.54401	936.39685	-781.05554	635.87360	824.82214	-731.82440	663.37659	824.12396	-739.49603	629.27979	747.89056	-1139.72107	719.31238	1365.38318	-1220.81946	686.55811	1149.40540	-1236.77075	650.96570	1043.18274	-1240.20862	606.95123	913.61194	-1204.83215	561.22510	825.24023	-1251.13647	587.08704	815.85632	-1241.82373	549.57813	751.69073	-867.03143	667.42065	940.95551	-1102.89380	655.57843	943.18958	-923.18768	827.35895	956.82239	-1071.93372	817.11108	972.47095	-818.37567	641.84180	645.01019	-845.08002	571.41833	480.28464	-855.32526	657.50677	299.85016	-904.37805	731.31488	107.10577	-946.35229	779.05621	85.16351	-924.51715	601.79230	36.30821	-1144.78418	720.75183	647.12268	-1106.89343	727.68964	468.67975	-1115.50659	790.70123	285.92874	-1069.92822	844.72156	75.17616	-1023.52484	894.48932	46.42360	-1047.00159	706.69580	32.13187				-969.28943	731.25696	1681.37488																		 
